<svg xmlns="http://www.w3.org/2000/svg" viewBox="0 0 40 40"><title>i_v4geo</title><circle cx="20" cy="20" r="19" fill="#fff"/><path d="M6.18,29.46V22.65a1,1,0,0,1,1-1H9.72a1,1,0,0,1,1,1v6.81a1,1,0,0,1-1,1H7.19A1,1,0,0,1,6.18,29.46Zm23.83,1h2.53a1,1,0,0,0,1-1V22.65a1,1,0,0,0-1-1H30a1,1,0,0,0-1,1v6.81A1,1,0,0,0,30,30.47Z" fill="#3c4043"/><path d="M29.94,9.27a.14.14,0,0,1,.11.11l1.25,4.87H8.7L10,9.38a.14.14,0,0,1,.11-.11H29.94m0-1.74H10.06A1.87,1.87,0,0,0,8.26,9L6.45,16h27.1L31.74,9a1.87,1.87,0,0,0-1.8-1.42Z" fill="#e94235"/><path d="M33.55,16H6.45L5.13,19.39a1.74,1.74,0,0,0-.13.67v6.39H35V20.06a1.74,1.74,0,0,0-.13-.67Z" fill="#e94235"/><rect x="6.44" y="18.95" width="6.03" height="3.44" rx="1.69" ry="1.69" fill="#fff"/><rect x="27.53" y="18.95" width="6.03" height="3.44" rx="1.69" ry="1.69" transform="translate(61.09 41.34) rotate(-180)" fill="#fff"/><path d="M24.17,23.35H15.83a1,1,0,0,1-.93-.68l-.79-2.39A1,1,0,0,1,15,19H25a1,1,0,0,1,.93,1.33l-.79,2.39A1,1,0,0,1,24.17,23.35Z" fill="#a50e0e"/></svg>