<svg xmlns="http://www.w3.org/2000/svg" xmlns:xlink="http://www.w3.org/1999/xlink" viewBox="0 0 40 40">
  <defs>
    <linearGradient id="a" x1="10.56" y1="31.55" x2="29.44" y2="31.55" gradientUnits="userSpaceOnUse">
      <stop offset="0" stop-color="#fbbc04"/>
      <stop offset="1" stop-color="#fdd663"/>
    </linearGradient>
  </defs>
  <title>i_v4geo</title>
  <circle cx="20" cy="20" r="19" fill="#fff"/>
  <rect x="19.3" y="9.7" width="1.72" height="6.87" fill="#bdc1c6"/>
  <path d="M21.74,6.19a1.51,1.51,0,1,1-3,0c0-.84,1.51-3.35,1.51-3.35S21.74,5.35,21.74,6.19Z" fill="#fcc934"/>
  <path d="M31.57,23.81a3.35,3.35,0,0,1-2.08,3.13,2.1,2.1,0,0,1-.81.14c-1.45,0-1.45-1.14-2.9-1.14s-1.44,1.14-2.89,1.14S21.45,25.94,20,25.94s-1.45,1.14-2.89,1.14-1.45-1.14-2.9-1.14-1.44,1.14-2.89,1.14a2.22,2.22,0,0,1-1.64-.69,3.38,3.38,0,0,1-1.25-2.62v0a4.82,4.82,0,0,1,1.63-3.62h0a14.18,14.18,0,0,1,9.39-3.56h1.06A14.18,14.18,0,0,1,29.81,20l.1.09a4.86,4.86,0,0,1,1.66,3.65Z" fill="#e94235"/>
  <path d="M28.68,29.08a4.06,4.06,0,0,1-2.69-1l-.18-.14h0l-.18.14a4.12,4.12,0,0,1-5.38,0L20,27.94h0l-.19.14a4.1,4.1,0,0,1-5.37,0l-.18-.14h-.05l-.18.14a4.06,4.06,0,0,1-2.69,1,4.37,4.37,0,0,1-.76-.07l.75,5.08a1.26,1.26,0,0,0,1.25,1.07H27.44a1.26,1.26,0,0,0,1.25-1.07L29.44,29A3.77,3.77,0,0,1,28.68,29.08Z" fill="url(#a)"/>
</svg>
