<svg xmlns="http://www.w3.org/2000/svg" viewBox="0 0 40 40"><title>i_v4geo</title><circle cx="20" cy="20" r="19" fill="#fff"/><path d="M12.63,12.6A19.09,19.09,0,0,1,31.15,7.7a1.66,1.66,0,0,1,1.2,1.2A19.12,19.12,0,0,1,8.85,32.3a1.66,1.66,0,0,1-1.2-1.2A19.09,19.09,0,0,1,12.63,12.6Z" fill="#ea4335"/><path d="M12.63,12.6A19.09,19.09,0,0,1,31.15,7.7a1.66,1.66,0,0,1,1.2,1.2A19.12,19.12,0,0,1,8.85,32.3a1.66,1.66,0,0,1-1.2-1.2A19.09,19.09,0,0,1,12.63,12.6Z" fill="#ea4335"/><path d="M7.7,21a18.34,18.34,0,0,0-.59,3.11l8.67,8.74h0l.77-.1h0a20.73,20.73,0,0,0,2.32-.47h0Z" fill="#fff"/><path d="M32.31,19a21,21,0,0,0,.49-2.33h0c0-.26.07-.52.1-.78l-8.73-8.7a18.69,18.69,0,0,0-3.11.58Z" fill="#fff"/><line x1="15.34" y1="22.76" x2="17.3" y2="24.73" fill="none" stroke="#fff" stroke-linecap="round" stroke-linejoin="round" stroke-width="2"/><line x1="22.57" y1="15.56" x2="24.53" y2="17.53" fill="none" stroke="#fff" stroke-linecap="round" stroke-linejoin="round" stroke-width="2"/><line x1="18.95" y1="19.16" x2="20.92" y2="21.13" fill="none" stroke="#fff" stroke-linecap="round" stroke-linejoin="round" stroke-width="2"/><line x1="24.97" y1="15.13" x2="14.9" y2="25.16" fill="none" stroke="#fff" stroke-linecap="round" stroke-linejoin="round" stroke-width="2"/></svg>