<svg xmlns="http://www.w3.org/2000/svg" viewBox="0 0 40 40"><title>i_v4geo</title><circle cx="20" cy="20" r="19" fill="#fff"/><path d="M21.61,7.3,7.3,21.6a7.85,7.85,0,1,0,13,3.2l4.47-4.46a7.85,7.85,0,1,0-3.19-13Z" fill="#3c4043"/><path d="M16.79,25l-2.1,2.1,2.09,2.1a.62.62,0,0,1,0,.87l-1.24,1.24a.62.62,0,0,1-.87,0l-2.1-2.1-2.1,2.1a.62.62,0,0,1-.87,0L8.36,30a.62.62,0,0,1,0-.87l2.1-2.1L8.36,25a.62.62,0,0,1,0-.87l1.25-1.24a.62.62,0,0,1,.87,0L12.57,25l2.1-2.1a.62.62,0,0,1,.87,0l1.25,1.25A.62.62,0,0,1,16.79,25ZM23.21,8.5a1.67,1.67,0,1,0,2.37,0A1.67,1.67,0,0,0,23.21,8.5Zm5.58,5.59a1.67,1.67,0,0,0,0,2.37,1.68,1.68,0,1,0,2.37-2.37A1.67,1.67,0,0,0,28.79,14.09Zm2.37-3.22a1.68,1.68,0,1,0-2.37,0A1.67,1.67,0,0,0,31.16,10.87Zm-8,3.21a1.68,1.68,0,0,0,0,2.37,1.68,1.68,0,0,0,2.37-2.37A1.68,1.68,0,0,0,23.2,14.08Z" fill="#dadce0"/></svg>