<svg xmlns="http://www.w3.org/2000/svg" xmlns:xlink="http://www.w3.org/1999/xlink" viewBox="0 0 40 40"><defs><clipPath id="a"><path d="M20,5V7h.21A13,13,0,0,1,20,33h-.21A13,13,0,0,1,20,7V5" fill="none"/></clipPath></defs><title>i_gender</title><circle cx="20.07" cy="20" r="19" fill="#fff"/><circle cx="20.07" cy="20" r="15" fill="none"/><path d="M9.46,30.61A15,15,0,0,1,30.68,9.39Z" fill="#4285f4"/><path d="M30.68,9.39A15,15,0,0,1,9.46,30.61Z" fill="#e94235"/><g clip-path="url(#a)"><path d="M20,22.45c-3.8,0-11.41,1.9-11.41,5.7V35H31.41V28.15C31.41,24.35,23.8,22.45,20,22.45Z" fill="#fff"/></g><path d="M20,20.7A5.7,5.7,0,1,0,14.3,15,5.67,5.67,0,0,0,20,20.7Z" fill="#fff"/></svg>