<svg xmlns="http://www.w3.org/2000/svg" xmlns:xlink="http://www.w3.org/1999/xlink" viewBox="0 0 40 40"><defs><style>.a,.e{fill:none;}.b{fill:#fff;}.c{fill:#34a853;}.d{clip-path:url(#a);}.e{stroke:#fff;stroke-linecap:round;stroke-linejoin:round;stroke-width:2px;}</style><clipPath id="a"><ellipse class="a" cx="20" cy="20" rx="14.99" ry="15.01" transform="translate(-8.28 20) rotate(-45.01)"/></clipPath></defs><title>i_v4geo</title><circle class="b" cx="20.07" cy="20" r="19"/><ellipse class="c" cx="20" cy="20" rx="14.99" ry="15.01" transform="translate(-8.28 20) rotate(-45.01)"/><g class="d"><path class="e" d="M23.78,59.41c.14-9.77,10.27-9.62,10.41-19.39s-10-9.92-9.85-19.69S34.62,10.72,34.76,1s-10-9.93-9.85-19.7,10.27-9.61,10.41-19.38"/><path class="e" d="M16.22,59.41C16.08,49.64,6,49.79,5.81,40s10-9.92,9.85-19.69S5.38,10.72,5.24,1s10-9.93,9.85-19.7S4.82-28.36,4.68-38.13"/></g></svg>