<svg xmlns="http://www.w3.org/2000/svg" viewBox="0 0 40 40"><title>i_v4geo</title><circle cx="20" cy="20" r="19" fill="#fff"/><path d="M31.46,8.75V22.81H8.54V8.75H31.46m.45-1.53H8.09A1.08,1.08,0,0,0,7,8.29V24.34H33v-16a1.08,1.08,0,0,0-1.08-1.07Z" fill="#80868b"/><path d="M5,28.19H35a0,0,0,0,1,0,0V29a.78.78,0,0,1-.78.78H5.78A.78.78,0,0,1,5,29v-.82A0,0,0,0,1,5,28.19Z" fill="#80868b"/><polygon points="35 28.19 32.98 25.34 7.01 25.34 5 28.19 35 28.19" fill="#80868b"/><polygon points="25.12 27.59 24.75 26.77 15.3 26.77 14.88 27.59 25.12 27.59" fill="#fff"/><polyline points="15.23 19.13 11.74 15.64 15.23 12.15" fill="none" stroke="#34a853" stroke-miterlimit="10" stroke-width="2"/><polyline points="24.77 12.15 28.26 15.64 24.77 19.13" fill="none" stroke="#34a853" stroke-miterlimit="10" stroke-width="2"/><line x1="21.75" y1="11.06" x2="18.22" y2="20.22" fill="none" stroke="#34a853" stroke-miterlimit="10" stroke-width="2"/></svg>