<svg xmlns="http://www.w3.org/2000/svg" viewBox="0 0 40 40"><title>i_v4geo</title><circle cx="20" cy="20" r="19" fill="#fff"/><ellipse cx="20" cy="20" rx="14.95" ry="14.96" transform="translate(-8.28 20) rotate(-45.01)" fill="#e94235"/><path d="M35,26.6c-.81-1.92-1.77-1.59-2.57-3.6s.15-2.45-.68-4.5-1.8-1.66-2.62-3.72.15-2.44-.67-4.49h0a4,4,0,0,0-3.57-2.22H17.8V26.6Z" fill="#2a2c33"/><path d="M29.21,18.58a4.3,4.3,0,0,1-.61-3.11l.12-.67v-.38a6.35,6.35,0,0,0-6.35-6.35H19.6L14.22,29.69a4.32,4.32,0,0,1-1.79,2.55l-.53.36a14.91,14.91,0,0,0,14.86.79l-4.45-1.88a.77.77,0,0,1-.48-.71h0a3.6,3.6,0,0,1,3.6-3.6h1.71a1.53,1.53,0,0,0,1.52-1.33l.48-3.77a.64.64,0,0,1,.4-.51l.44-.16a.75.75,0,0,0,.36-1.1Z" fill="#f1f3f4"/><path d="M5.62,26.6h15.5c.29-1.33-.25-1.92.48-3.64.9-2.09,1.89-1.67,2.78-3.75s-.1-2.51.79-4.6,1.88-1.67,2.78-3.76h0a2.79,2.79,0,0,0-2.79-2.78H16.63a4.55,4.55,0,0,0-4.19,2.78h0c-.89,2.09-1.88,1.67-2.77,3.76s.09,2.51-.8,4.6S7,20.87,6.1,23C5.36,24.68,5.91,25.27,5.62,26.6Z" fill="#2a2c33"/></svg>